<svg id="visual" viewBox="0 0 540 960" width="540" height="960" xmlns="http://www.w3.org/2000/svg" xmlns:xlink="http://www.w3.org/1999/xlink" version="1.1"><path d="M0 135L42 126L83 116L125 107L166 116L208 135L249 97L291 145L332 107L374 107L415 97L457 107L498 116L540 107L540 0L498 0L457 0L415 0L374 0L332 0L291 0L249 0L208 0L166 0L125 0L83 0L42 0L0 0Z" fill="#00cc8e"></path><path d="M0 193L42 203L83 174L125 174L166 183L208 212L249 164L291 212L332 164L374 174L415 155L457 164L498 193L540 174L540 105L498 114L457 105L415 95L374 105L332 105L291 143L249 95L208 133L166 114L125 105L83 114L42 124L0 133Z" fill="#00c48c"></path><path d="M0 241L42 241L83 222L125 222L166 222L208 260L249 203L291 251L332 203L374 212L415 193L457 212L498 231L540 212L540 172L498 191L457 162L415 153L374 172L332 162L291 210L249 162L208 210L166 181L125 172L83 172L42 201L0 191Z" fill="#00bc8a"></path><path d="M0 289L42 289L83 270L125 270L166 270L208 308L249 260L291 308L332 260L374 260L415 251L457 260L498 289L540 260L540 210L498 229L457 210L415 191L374 210L332 201L291 249L249 201L208 258L166 220L125 220L83 220L42 239L0 239Z" fill="#00b388"></path><path d="M0 510L42 481L83 481L125 433L166 462L208 529L249 443L291 491L332 443L374 443L415 414L457 462L498 471L540 462L540 258L498 287L457 258L415 249L374 258L332 258L291 306L249 258L208 306L166 268L125 268L83 268L42 287L0 287Z" fill="#00ab85"></path><path d="M0 558L42 519L83 529L125 471L166 500L208 567L249 500L291 529L332 481L374 500L415 471L457 519L498 529L540 500L540 460L498 469L457 460L415 412L374 441L332 441L291 489L249 441L208 527L166 460L125 431L83 479L42 479L0 508Z" fill="#00a382"></path><path d="M0 644L42 606L83 606L125 577L166 587L208 654L249 577L291 635L332 567L374 606L415 558L457 596L498 615L540 606L540 498L498 527L457 517L415 469L374 498L332 479L291 527L249 498L208 565L166 498L125 469L83 527L42 517L0 556Z" fill="#009b7f"></path><path d="M0 817L42 817L83 836L125 807L166 827L208 827L249 817L291 836L332 817L374 807L415 807L457 817L498 846L540 817L540 604L498 613L457 594L415 556L374 604L332 565L291 633L249 575L208 652L166 585L125 575L83 604L42 604L0 642Z" fill="#00937b"></path><path d="M0 865L42 884L83 894L125 875L166 884L208 875L249 875L291 894L332 875L374 875L415 875L457 875L498 894L540 884L540 815L498 844L457 815L415 805L374 805L332 815L291 834L249 815L208 825L166 825L125 805L83 834L42 815L0 815Z" fill="#008b77"></path><path d="M0 961L42 961L83 961L125 961L166 961L208 961L249 961L291 961L332 961L374 961L415 961L457 961L498 961L540 961L540 882L498 892L457 873L415 873L374 873L332 873L291 892L249 873L208 873L166 882L125 873L83 892L42 882L0 863Z" fill="#038373"></path></svg>