<svg id="visual" viewBox="0 0 600 900" width="600" height="900" xmlns="http://www.w3.org/2000/svg" xmlns:xlink="http://www.w3.org/1999/xlink" version="1.1"><rect x="0" y="0" width="600" height="900" fill="#001220"></rect><defs><linearGradient id="grad1_0" x1="0%" y1="0%" x2="100%" y2="100%"><stop offset="30%" stop-color="#fbae3c" stop-opacity="1"></stop><stop offset="70%" stop-color="#fbae3c" stop-opacity="1"></stop></linearGradient></defs><defs><linearGradient id="grad1_1" x1="0%" y1="0%" x2="100%" y2="100%"><stop offset="30%" stop-color="#fbae3c" stop-opacity="1"></stop><stop offset="70%" stop-color="#f48350" stop-opacity="1"></stop></linearGradient></defs><defs><linearGradient id="grad1_2" x1="0%" y1="0%" x2="100%" y2="100%"><stop offset="30%" stop-color="#d96162" stop-opacity="1"></stop><stop offset="70%" stop-color="#f48350" stop-opacity="1"></stop></linearGradient></defs><defs><linearGradient id="grad1_3" x1="0%" y1="0%" x2="100%" y2="100%"><stop offset="30%" stop-color="#d96162" stop-opacity="1"></stop><stop offset="70%" stop-color="#af4b6d" stop-opacity="1"></stop></linearGradient></defs><defs><linearGradient id="grad1_4" x1="0%" y1="0%" x2="100%" y2="100%"><stop offset="30%" stop-color="#7c3e6b" stop-opacity="1"></stop><stop offset="70%" stop-color="#af4b6d" stop-opacity="1"></stop></linearGradient></defs><defs><linearGradient id="grad1_5" x1="0%" y1="0%" x2="100%" y2="100%"><stop offset="30%" stop-color="#7c3e6b" stop-opacity="1"></stop><stop offset="70%" stop-color="#49335c" stop-opacity="1"></stop></linearGradient></defs><defs><linearGradient id="grad1_6" x1="0%" y1="0%" x2="100%" y2="100%"><stop offset="30%" stop-color="#1d2540" stop-opacity="1"></stop><stop offset="70%" stop-color="#49335c" stop-opacity="1"></stop></linearGradient></defs><defs><linearGradient id="grad1_7" x1="0%" y1="0%" x2="100%" y2="100%"><stop offset="30%" stop-color="#1d2540" stop-opacity="1"></stop><stop offset="70%" stop-color="#001220" stop-opacity="1"></stop></linearGradient></defs><defs><linearGradient id="grad2_0" x1="0%" y1="0%" x2="100%" y2="100%"><stop offset="30%" stop-color="#fbae3c" stop-opacity="1"></stop><stop offset="70%" stop-color="#fbae3c" stop-opacity="1"></stop></linearGradient></defs><defs><linearGradient id="grad2_1" x1="0%" y1="0%" x2="100%" y2="100%"><stop offset="30%" stop-color="#f48350" stop-opacity="1"></stop><stop offset="70%" stop-color="#fbae3c" stop-opacity="1"></stop></linearGradient></defs><defs><linearGradient id="grad2_2" x1="0%" y1="0%" x2="100%" y2="100%"><stop offset="30%" stop-color="#f48350" stop-opacity="1"></stop><stop offset="70%" stop-color="#d96162" stop-opacity="1"></stop></linearGradient></defs><defs><linearGradient id="grad2_3" x1="0%" y1="0%" x2="100%" y2="100%"><stop offset="30%" stop-color="#af4b6d" stop-opacity="1"></stop><stop offset="70%" stop-color="#d96162" stop-opacity="1"></stop></linearGradient></defs><defs><linearGradient id="grad2_4" x1="0%" y1="0%" x2="100%" y2="100%"><stop offset="30%" stop-color="#af4b6d" stop-opacity="1"></stop><stop offset="70%" stop-color="#7c3e6b" stop-opacity="1"></stop></linearGradient></defs><defs><linearGradient id="grad2_5" x1="0%" y1="0%" x2="100%" y2="100%"><stop offset="30%" stop-color="#49335c" stop-opacity="1"></stop><stop offset="70%" stop-color="#7c3e6b" stop-opacity="1"></stop></linearGradient></defs><defs><linearGradient id="grad2_6" x1="0%" y1="0%" x2="100%" y2="100%"><stop offset="30%" stop-color="#49335c" stop-opacity="1"></stop><stop offset="70%" stop-color="#1d2540" stop-opacity="1"></stop></linearGradient></defs><defs><linearGradient id="grad2_7" x1="0%" y1="0%" x2="100%" y2="100%"><stop offset="30%" stop-color="#001220" stop-opacity="1"></stop><stop offset="70%" stop-color="#1d2540" stop-opacity="1"></stop></linearGradient></defs><g transform="translate(600, 0)"><path d="M0 351.5C-31 311.9 -62.1 272.3 -108.3 261.5C-154.5 250.6 -215.9 268.5 -248.6 248.6C-281.2 228.7 -285.1 171 -297.5 123.2C-309.9 75.5 -330.7 37.7 -351.5 0L0 0Z" fill="#0c1c30"></path><path d="M0 307.6C-27.2 272.9 -54.3 238.3 -94.8 228.8C-135.2 219.3 -188.9 234.9 -217.5 217.5C-246.1 200.1 -249.5 149.6 -260.3 107.8C-271.1 66.1 -289.4 33 -307.6 0L0 0Z" fill="#312c4f"></path><path d="M0 263.7C-23.3 233.9 -46.6 204.2 -81.2 196.1C-115.9 187.9 -161.9 201.4 -186.4 186.4C-210.9 171.5 -213.8 128.2 -223.1 92.4C-232.4 56.6 -248 28.3 -263.7 0L0 0Z" fill="#623965"></path><path d="M0 219.7C-19.4 195 -38.8 170.2 -67.7 163.4C-96.6 156.6 -135 167.8 -155.4 155.4C-175.8 142.9 -178.2 106.8 -185.9 77C-193.7 47.2 -206.7 23.6 -219.7 0L0 0Z" fill="#96446e"></path><path d="M0 175.8C-15.5 156 -31 136.2 -54.1 130.7C-77.3 125.3 -108 134.2 -124.3 124.3C-140.6 114.3 -142.6 85.5 -148.7 61.6C-154.9 37.7 -165.3 18.9 -175.8 0L0 0Z" fill="#c55469"></path><path d="M0 131.8C-11.6 117 -23.3 102.1 -40.6 98C-57.9 94 -81 100.7 -93.2 93.2C-105.5 85.7 -106.9 64.1 -111.6 46.2C-116.2 28.3 -124 14.2 -131.8 0L0 0Z" fill="#e9705a"></path><path d="M0 87.9C-7.8 78 -15.5 68.1 -27.1 65.4C-38.6 62.6 -54 67.1 -62.1 62.1C-70.3 57.2 -71.3 42.7 -74.4 30.8C-77.5 18.9 -82.7 9.4 -87.9 0L0 0Z" fill="#fa9845"></path><path d="M0 43.9C-3.9 39 -7.8 34 -13.5 32.7C-19.3 31.3 -27 33.6 -31.1 31.1C-35.2 28.6 -35.6 21.4 -37.2 15.4C-38.7 9.4 -41.3 4.7 -43.9 0L0 0Z" fill="#fbae3c"></path></g><g transform="translate(0, 900)"><path d="M0 -351.5C36.5 -326.5 73 -301.4 119.8 -289.2C166.6 -276.9 223.6 -277.4 248.6 -248.6C273.5 -219.7 266.3 -161.5 278.1 -115.2C289.9 -68.9 320.7 -34.4 351.5 0L0 0Z" fill="#0c1c30"></path><path d="M0 -307.6C31.9 -285.7 63.9 -263.8 104.8 -253C145.7 -242.3 195.7 -242.7 217.5 -217.5C239.3 -192.3 233 -141.3 243.3 -100.8C253.7 -60.3 280.6 -30.1 307.6 0L0 0Z" fill="#312c4f"></path><path d="M0 -263.7C27.4 -244.9 54.7 -226.1 89.8 -216.9C124.9 -207.7 167.7 -208.1 186.4 -186.4C205.1 -164.8 199.7 -121.1 208.6 -86.4C217.4 -51.6 240.5 -25.8 263.7 0L0 0Z" fill="#623965"></path><path d="M0 -219.7C22.8 -204.1 45.6 -188.4 74.9 -180.7C104.1 -173.1 139.8 -173.4 155.4 -155.4C170.9 -137.3 166.4 -100.9 173.8 -72C181.2 -43 200.4 -21.5 219.7 0L0 0Z" fill="#96446e"></path><path d="M0 -175.8C18.2 -163.2 36.5 -150.7 59.9 -144.6C83.3 -138.5 111.8 -138.7 124.3 -124.3C136.8 -109.9 133.1 -80.8 139 -57.6C144.9 -34.4 160.4 -17.2 175.8 0L0 0Z" fill="#c55469"></path><path d="M0 -131.8C13.7 -122.4 27.4 -113 44.9 -108.4C62.5 -103.8 83.9 -104 93.2 -93.2C102.6 -82.4 99.9 -60.6 104.3 -43.2C108.7 -25.8 120.3 -12.9 131.8 0L0 0Z" fill="#e9705a"></path><path d="M0 -87.9C9.1 -81.6 18.2 -75.4 29.9 -72.3C41.6 -69.2 55.9 -69.4 62.1 -62.1C68.4 -54.9 66.6 -40.4 69.5 -28.8C72.5 -17.2 80.2 -8.6 87.9 0L0 0Z" fill="#fa9845"></path><path d="M0 -43.9C4.6 -40.8 9.1 -37.7 15 -36.1C20.8 -34.6 28 -34.7 31.1 -31.1C34.2 -27.5 33.3 -20.2 34.8 -14.4C36.2 -8.6 40.1 -4.3 43.9 0L0 0Z" fill="#fbae3c"></path></g></svg>